<svg width="30" height="30" viewBox="0 0 30 30" fill="none" xmlns="http://www.w3.org/2000/svg">
<path d="M22.5 7.5H20C20 4.7375 17.7625 2.5 15 2.5C12.2375 2.5 10 4.7375 10 7.5H7.5C6.125 7.5 5 8.625 5 10V25C5 26.375 6.125 27.5 7.5 27.5H22.5C23.875 27.5 25 26.375 25 25V10C25 8.625 23.875 7.5 22.5 7.5ZM15 5C16.375 5 17.5 6.125 17.5 7.5H12.5C12.5 6.125 13.625 5 15 5ZM22.5 25H7.5V10H10V12.5C10 13.1875 10.5625 13.75 11.25 13.75C11.9375 13.75 12.5 13.1875 12.5 12.5V10H17.5V12.5C17.5 13.1875 18.0625 13.75 18.75 13.75C19.4375 13.75 20 13.1875 20 12.5V10H22.5V25Z" fill="black"/>
</svg>
